<?xml version="1.0" encoding="UTF-8" standalone="no"?> <svg width="512" height="512" viewBox="0 0 512 512" fill="none" xmlns="http://www.w3.org/2000/svg">
<path d="M136 464H72V424C72.0024 421.879 72.846 419.846 74.3458 418.346C75.8456 416.846 77.879 416.002 80 416H128C130.121 416.002 132.154 416.846 133.654 418.346C135.154 419.846 135.998 421.879 136 424V464ZM128 400H104V360C104.002 357.879 104.846 355.846 106.346 354.346C107.846 352.846 109.879 352.002 112 352H160C162.121 352.002 164.154 352.846 165.654 354.346C167.154 355.846 167.998 357.879 168 360V400H160C154.092 399.996 148.392 402.18 144 406.131C139.608 402.18 133.908 399.996 128 400V400ZM216 464H152V424C152.002 421.879 152.846 419.846 154.346 418.346C155.846 416.846 157.879 416.002 160 416H208C210.121 416.002 212.154 416.846 213.654 418.346C215.154 419.846 215.998 421.879 216 424V464ZM208 400H184V360C184.002 357.879 184.846 355.846 186.346 354.346C187.846 352.846 189.879 352.002 192 352H240C242.121 352.002 244.154 352.846 245.654 354.346C247.154 355.846 247.998 357.879 248 360V400H240C234.092 399.996 228.392 402.18 224 406.131C219.608 402.18 213.908 399.996 208 400V400ZM296 464H232V424C232.002 421.879 232.846 419.846 234.346 418.346C235.846 416.846 237.879 416.002 240 416H288C290.121 416.002 292.154 416.846 293.654 418.346C295.154 419.846 295.998 421.879 296 424V464ZM288 400H264V360C264.002 357.879 264.846 355.846 266.346 354.346C267.846 352.846 269.879 352.002 272 352H320C322.121 352.002 324.154 352.846 325.654 354.346C327.154 355.846 327.998 357.879 328 360V400H320C314.092 399.996 308.392 402.18 304 406.131C299.608 402.18 293.908 399.996 288 400V400ZM376 464H312V424C312.002 421.879 312.846 419.846 314.346 418.346C315.846 416.846 317.879 416.002 320 416H368C370.121 416.002 372.154 416.846 373.654 418.346C375.154 419.846 375.998 421.879 376 424V464ZM368 400H344V360C344.002 357.879 344.846 355.846 346.346 354.346C347.846 352.846 349.879 352.002 352 352H400C402.121 352.002 404.154 352.846 405.654 354.346C407.154 355.846 407.998 357.879 408 360V400H400C394.092 399.996 388.392 402.18 384 406.131C379.608 402.18 373.908 399.996 368 400V400ZM448 416C450.121 416.002 452.154 416.846 453.654 418.346C455.154 419.846 455.998 421.879 456 424V464H392V424C392.002 421.879 392.846 419.846 394.346 418.346C395.846 416.846 397.879 416.002 400 416H448ZM256 224C267.076 224 277.903 220.716 287.112 214.562C296.321 208.409 303.499 199.663 307.737 189.43C311.976 179.198 313.085 167.938 310.924 157.075C308.763 146.212 303.43 136.234 295.598 128.402C287.766 120.57 277.788 115.237 266.925 113.076C256.062 110.915 244.802 112.024 234.57 116.263C224.337 120.501 215.591 127.679 209.438 136.888C203.284 146.097 200 156.924 200 168C200.017 182.847 205.922 197.081 216.42 207.58C226.919 218.078 241.153 223.983 256 224V224ZM291.913 136.139C296.293 141.086 299.608 146.883 301.65 153.167C303.692 159.452 304.418 166.09 303.783 172.667L287.859 171.1C288.28 166.718 287.794 162.296 286.434 158.109C285.073 153.922 282.866 150.059 279.95 146.761L291.913 136.139ZM283.6 184.216L297.4 192.311C294.049 198.006 289.561 202.949 284.215 206.833C278.87 210.717 272.782 213.459 266.33 214.886L262.895 199.259C267.192 198.304 271.247 196.476 274.808 193.888C278.369 191.3 281.36 188.008 283.595 184.216H283.6ZM256 120C262.608 119.989 269.146 121.351 275.2 124L268.8 138.659C264.762 136.905 260.406 135.999 256.003 135.999C251.6 135.999 247.244 136.905 243.206 138.659L236.8 124C242.854 121.35 249.392 119.988 256 120V120ZM210.35 153.167C212.38 146.878 215.695 141.08 220.085 136.14L232.05 146.762C229.134 150.06 226.927 153.923 225.566 158.111C224.206 162.298 223.721 166.72 224.142 171.103L208.218 172.667C207.569 166.089 208.295 159.449 210.35 153.167V153.167ZM228.4 184.215C230.636 188.008 233.628 191.301 237.19 193.889C240.752 196.477 244.809 198.305 249.107 199.259L245.672 214.886C239.22 213.458 233.132 210.717 227.786 206.834C222.44 202.95 217.952 198.007 214.6 192.312L228.4 184.215ZM336 216H309.608C307.019 218.888 304.202 221.563 301.185 224H384V192H323.872C322.901 194.733 321.766 197.404 320.472 200H336V216ZM352 200H368V216H352V200ZM64 256H448V80H64V256ZM256 96C266.133 95.989 276.154 98.1194 285.407 102.251C294.659 106.384 302.934 112.424 309.689 119.977C316.444 127.531 321.526 136.426 324.603 146.081C327.681 155.735 328.683 165.931 327.545 176H392C394.122 176 396.157 176.843 397.657 178.343C399.157 179.843 400 181.878 400 184V232C400 234.122 399.157 236.157 397.657 237.657C396.157 239.157 394.122 240 392 240H256C236.904 240 218.591 232.414 205.088 218.912C191.586 205.409 184 187.096 184 168C184 148.904 191.586 130.591 205.088 117.088C218.591 103.586 236.904 96 256 96V96ZM32 48V288H480V48H32ZM464 264C464 266.122 463.157 268.157 461.657 269.657C460.157 271.157 458.122 272 456 272H56C53.8783 272 51.8434 271.157 50.3431 269.657C48.8429 268.157 48 266.122 48 264V72C48 69.8783 48.8429 67.8434 50.3431 66.3431C51.8434 64.8429 53.8783 64 56 64H456C458.122 64 460.157 64.8429 461.657 66.3431C463.157 67.8434 464 69.8783 464 72V264Z" fill="url(#paint0_linear_1_10352)"/>
<defs>
<linearGradient id="paint0_linear_1_10352" x1="54" y1="446" x2="466" y2="34" gradientUnits="userSpaceOnUse">
<stop stop-color="#41DFD0"/>
<stop offset="1" stop-color="#EE83EF"/>
</linearGradient>
</defs>
</svg>
